<svg xmlns="http://www.w3.org/2000/svg" viewBox="0 0 1600 900">
  <defs>
    <linearGradient id="bg" x1="0" x2="1" y1="0" y2="1">
      <stop offset="0%" stop-color="#06080d" />
      <stop offset="100%" stop-color="#0e1119" />
    </linearGradient>
    <radialGradient id="pulse" cx="50%" cy="50%" r="50%">
      <stop offset="0%" stop-color="#dc2626" stop-opacity="0.22" />
      <stop offset="100%" stop-color="#dc2626" stop-opacity="0" />
    </radialGradient>
  </defs>
  <rect width="1600" height="900" fill="url(#bg)" />
  <rect width="1600" height="900" fill="url(#pulse)" opacity="0.6" />
  <g fill="none" stroke="#cbd5e1" stroke-opacity="0.12">
    <path d="M120 210c60-50 160-70 240-20l34 30 28 70-44 64-90 18-72-28-54 16-56-52-10-46z" fill="#dbeafe" fill-opacity="0.08"/>
    <path d="M470 150l114-44 120 16 96 50 36 88-30 104-80 50-112-8-90-56-48-98z" fill="#dbeafe" fill-opacity="0.08"/>
    <path d="M690 450l86-10 72 34 32 94-18 88-62 118-64 20-74-52-34-108 16-110z" fill="#dbeafe" fill-opacity="0.08"/>
    <path d="M930 148l96-18 86 36 34 64-26 66-58 20-70-28-46-24-36-52z" fill="#dbeafe" fill-opacity="0.08"/>
    <path d="M1076 350l92-16 110 32 88 62 10 88-48 90-104 18-92-44-58-74-6-74z" fill="#dbeafe" fill-opacity="0.08"/>
    <path d="M1310 680l92-34 88 42 12 70-76 50-110-12-44-56z" fill="#dbeafe" fill-opacity="0.08"/>
  </g>
  <g stroke="#ef4444" stroke-opacity="0.14">
    <path d="M0 120h1600M0 240h1600M0 360h1600M0 480h1600M0 600h1600M0 720h1600" />
    <path d="M160 0v900M320 0v900M480 0v900M640 0v900M800 0v900M960 0v900M1120 0v900M1280 0v900M1440 0v900" />
  </g>
</svg>
