<svg xmlns="http://www.w3.org/2000/svg" viewBox="0 0 800 480"><rect width="800" height="480" fill="#111827"/><circle cx="126" cy="82" r="76" fill="#dc2626" opacity="0.22"/><path d="M0 320c96-18 182-8 284 30 84 30 148 36 244 18 98-18 174-64 272-56v168H0z" fill="#0f766e" opacity="0.82"/><path d="M86 234h92v96H86zm126-36h110v132H212zm152 24h86v108h-86z" fill="#f8fafc" opacity="0.18"/><path d="M540 186l48 58-28 76h96l-52-88 48-46-52-40-60 32z" fill="#f59e0b" opacity="0.54"/><text x="68" y="112" fill="#f8fafc" font-size="48" font-family="Segoe UI, sans-serif" font-weight="700">Old City District</text><text x="68" y="158" fill="#fda4af" font-size="20" font-family="Segoe UI, sans-serif">Baku, Azerbaijan</text></svg>
