<svg xmlns="http://www.w3.org/2000/svg" viewBox="0 0 800 480"><rect width="800" height="480" fill="#082f49"/><circle cx="618" cy="88" r="90" fill="#f97316" opacity="0.28"/><path d="M0 310c80-14 144-4 216 18 66 20 126 28 190 18 112-18 208-92 394-70v204H0z" fill="#0ea5e9" opacity="0.74"/><path d="M0 352c104-10 178 2 286 36 116 38 226 32 514-26v118H0z" fill="#22d3ee" opacity="0.38"/><path d="M126 306h94v76h-94zm130-20h86v96h-86zm120 34h96v62h-96z" fill="#111827" opacity="0.86"/><text x="62" y="108" fill="#f8fafc" font-size="48" font-family="Segoe UI, sans-serif" font-weight="700">Harbourfront District</text><text x="62" y="154" fill="#fde68a" font-size="20" font-family="Segoe UI, sans-serif">Kingston, Jamaica</text></svg>
